<svg xmlns="http://www.w3.org/2000/svg" viewBox="0 0 1600 1200"><style>.st0{fill:#343434}.st1{fill:#f2f2ef}.st2{display:none}.st3{display:inline}.st3,.st4{fill:#fff}.st5{display:inline}.st6{font-family:&apos;ATCArquette-Regular&apos;}.st7{font-size:750px}.st8{fill:#68b045}.st9{fill:#333030}</style><path class="st0" d="M-5-5h1610v1210H-5z" id="Bg"/><g id="Content"><path class="st4" d="M742.3 715.5h-255l-55.5 135.8H368l212.2-510h67.5l214.5 510h-63.8l-56.1-135.8zM719 659.2l-105-252-103.5 252H719zM1232 622.5v228.8h-55.5v-60.8c-23.2 38.2-74.2 68.2-132 68.2-69 0-123-43.5-123-109.5 0-64.5 52.5-101.2 120.8-114.8l133.5-27c-6-48.8-38.2-88.5-93-88.5-43.5 0-83.2 24.8-105 59.2l-45-31.5c30.8-45.8 87-78.8 146.2-78.8 90 .2 153 61.7 153 154.7zm-55.5 78.7V657l-123.8 25.5c-42.8 9.8-75.8 30.8-75.8 65.2s33 59.2 80.2 59.2c62.4.1 119.4-42.7 119.4-105.7z"/></g><g id="Live" class="st2"><text transform="translate(327.508 842.488)" class="st3 st6 st7">Aa</text></g></svg>