<svg xmlns="http://www.w3.org/2000/svg" width="820" height="607" viewBox="0 0 820 607"><path fill="#FFF" d="M0 0h820v607H0z"/><title>Landscape</title><path fill="#9B9B9B" d="M729.9 216.3h-23.1V243h23.1v-26.7zM444.9 216.3h-23.1V243h23.1v-26.7zM729.9 292.8h-23.1v26.8h23.1v-26.8zM444.9 292.8h-23.1v26.8h23.1v-26.8zM729.9 369.3h-23.1V396h23.1v-26.7zM444.9 369.3h-23.1V396h23.1v-26.7zM421.8 397h308.1v47.8H421.8zM421.8 320.5h308.1v47.8H421.8zM421.8 167.5h308.1v47.8H421.8zM421.8 244h308.1v47.8H421.8z"/><g fill="#4990E2"><path d="M764 319.5h-1V444h-13.7v1h29.4v-1H764zM763 292.8h1V169h14.7v-1h-29.4v1H763z"/></g><path d="M757.9 309.2l.9-1.5c.5.5 1 .7 1.9.7 1.5 0 2.3-1.3 2.3-2.6v-.2c-.4.6-1.4 1.2-2.4 1.2-1.7 0-3.2-1.1-3.2-3 0-1.8 1.5-3.2 3.6-3.2 2.8 0 4 2.2 4 4.8 0 2.8-1.6 4.8-4.3 4.8-1.2 0-2.1-.4-2.8-1zm5.1-5c-.1-.9-.6-1.9-1.9-1.9-1.1 0-1.7.7-1.7 1.4 0 1 .9 1.4 1.7 1.4.8-.1 1.5-.4 1.9-.9zM767.1 304.6l-.8-.6c.4-.2 1-.8 1.1-1.3 0 0-.2.1-.3.1-.5 0-1-.4-1-1s.5-1.1 1.1-1.1c.7 0 1.3.5 1.3 1.4 0 .9-.6 1.8-1.4 2.5zm2.8 0l-.8-.6c.4-.2 1-.8 1.1-1.3-.1 0-.2.1-.3.1-.5 0-1-.4-1-1s.5-1.1 1.1-1.1c.7 0 1.2.5 1.2 1.4.2.9-.4 1.8-1.3 2.5z"/><path fill="#9B9B9B" d="M46 191.6h23.1v46.8H46zM331 191.6h23.1v46.8H331z"/><path fill="#D8D8D8" d="M319.4 194.5H80.7v40h13.1l3 3.9h208l3.1-3.9h11.5z"/><path fill="#9B9B9B" d="M46 167.5h308.1v23.1H46z"/><g fill="#4990E2"><path d="M353.5 258v14.2H220.1v1h133.4v14.2h1V258zM181.5 272.2h-135V258h-1v29.4h1v-14.2h135z"/></g><path d="M193.5 277.3v-6.8l-1.6 1.6-1.1-1.2 2.9-3h1.7v9.3h-1.9v.1zM196.9 272.7c0-2.4 1.2-4.8 3.9-4.8s3.9 2.4 3.9 4.8-1.2 4.8-3.9 4.8-3.9-2.4-3.9-4.8zm5.7 0c0-1.7-.5-3.1-1.8-3.1s-1.8 1.3-1.8 3.1c0 1.7.5 3.1 1.8 3.1 1.3-.1 1.8-1.4 1.8-3.1zM206.6 271.9l-.8-.6c.4-.2 1-.8 1.1-1.3 0 0-.2.1-.3.1-.5 0-1-.4-1-1s.5-1.1 1.1-1.1c.7 0 1.3.5 1.3 1.4.1.9-.5 1.9-1.4 2.5zm2.9 0l-.8-.6c.4-.2 1-.8 1.1-1.3-.1 0-.2.1-.3.1-.5 0-1-.4-1-1s.5-1.1 1.1-1.1c.7 0 1.2.5 1.2 1.4.1.9-.5 1.9-1.3 2.5z"/><g><path d="M47.2 145v-12h8.5v2.3h-5.9v2.5h5.8v2.2h-5.8v5h-2.6zM57.4 145v-8.7h2.3v1.2c.6-.8 1.7-1.4 2.8-1.4v2.2c-.2 0-.4-.1-.6-.1-.8 0-1.8.4-2.1 1v5.7h-2.4v.1zM63.3 140.6c0-2.5 1.7-4.6 4.6-4.6s4.6 2.1 4.6 4.6-1.7 4.6-4.6 4.6c-2.8 0-4.6-2.1-4.6-4.6zm6.9 0c0-1.4-.8-2.5-2.2-2.5s-2.2 1.2-2.2 2.5c0 1.4.8 2.5 2.2 2.5s2.2-1.1 2.2-2.5zM80.1 145v-5.3c0-1.2-.6-1.6-1.6-1.6-.9 0-1.6.5-2 1v5.9h-2.3v-8.7h2.3v1.1c.6-.7 1.6-1.4 3-1.4 1.9 0 2.8 1.1 2.8 2.8v6.1l-2.2.1zM85.1 142.8v-4.5h-1.4v-2h1.4v-2.4h2.3v2.4h1.8v2h-1.8v3.9c0 .5.3 1 .8 1 .3 0 .7-.1.8-.3l.5 1.7c-.3.3-1 .6-1.9.6-1.6 0-2.5-.8-2.5-2.4z"/></g><g><path d="M424 145v-9.8h-3.5V133h9.6v2.3h-3.5v9.8H424v-.1zM429.3 140.6c0-2.5 1.7-4.6 4.6-4.6s4.6 2.1 4.6 4.6-1.7 4.6-4.6 4.6c-2.9 0-4.6-2.1-4.6-4.6zm6.8 0c0-1.4-.8-2.5-2.2-2.5-1.4 0-2.2 1.2-2.2 2.5 0 1.4.8 2.5 2.2 2.5 1.4.1 2.2-1.1 2.2-2.5zM442.5 143.9v4.4h-2.3v-12h2.3v1.1c.7-.8 1.6-1.3 2.7-1.3 2.2 0 3.9 1.7 3.9 4.6 0 2.9-1.6 4.6-3.9 4.6-1.1-.1-2-.5-2.7-1.4zm4.1-3.3c0-1.5-.9-2.5-2.2-2.5-.7 0-1.6.4-2 1v3.1c.4.5 1.2 1 2 1 1.3 0 2.2-1 2.2-2.6z"/></g></svg>