<svg xmlns="http://www.w3.org/2000/svg" width="20" height="20" viewBox="0 0 20 20"><title>icon-dribbble</title><path d="M10,20A10,10,0,1,1,20,10,10,10,0,0,1,10,20Zm8.43-8.63A12.54,12.54,0,0,0,13.11,11a36.86,36.86,0,0,1,1.66,6.09A8.56,8.56,0,0,0,18.43,11.37Zm-5.1,6.51a35.51,35.51,0,0,0-1.82-6.48l-.06,0a11.71,11.71,0,0,0-6.7,5.33,8.53,8.53,0,0,0,8.58,1.12ZM3.65,15.72a13.55,13.55,0,0,1,6.94-5.64l.34-.1c-.21-.49-.45-1-.69-1.45A31.51,31.51,0,0,1,1.46,9.75c0,.09,0,.17,0,.26A8.51,8.51,0,0,0,3.65,15.72Zm-2-7.46a31.86,31.86,0,0,0,7.9-1A54.5,54.5,0,0,0,6.37,2.28,8.57,8.57,0,0,0,1.64,8.26ZM8,1.71a45.59,45.59,0,0,1,3.19,5,9.64,9.64,0,0,0,4.48-3.09A8.53,8.53,0,0,0,8,1.71Zm8.61,2.9A11.38,11.38,0,0,1,11.84,8c.2.41.39.82.57,1.24l.18.44a20,20,0,0,1,5.95.27A8.5,8.5,0,0,0,16.61,4.61Z" fill="#231f20" fill-rule="evenodd"/></svg>