<svg xmlns="http://www.w3.org/2000/svg" width="20" height="20" viewBox="0 0 20 20"><title>icon-twitter</title><path d="M10,1.44A8.56,8.56,0,1,1,1.44,10,8.57,8.57,0,0,1,10,1.44M10,0A10,10,0,1,0,20,10,10,10,0,0,0,10,0Z" fill="#231f20"/><path d="M8.17,15.27A6.81,6.81,0,0,0,15,8.42c0-.1,0-.21,0-.31a4.9,4.9,0,0,0,1.2-1.25,4.81,4.81,0,0,1-1.38.38A2.42,2.42,0,0,0,15.9,5.9a4.83,4.83,0,0,1-1.53.59,2.41,2.41,0,0,0-4.11,2.2,6.84,6.84,0,0,1-5-2.52A2.41,2.41,0,0,0,6,9.39a2.39,2.39,0,0,1-1.09-.3v0a2.41,2.41,0,0,0,1.93,2.36,2.41,2.41,0,0,1-1.09,0A2.41,2.41,0,0,0,8,13.19a4.84,4.84,0,0,1-3,1,4.91,4.91,0,0,1-.58,0,6.82,6.82,0,0,0,3.7,1.08" fill="#231f20"/></svg>