<svg xmlns="http://www.w3.org/2000/svg" width="20" height="20" viewBox="0 0 20 20"><title>icon-github</title><path d="M10,0A10,10,0,1,0,20,10,10,10,0,0,0,10,0Zm2,18.31c0-1.15,0-2.94,0-3.64a1.93,1.93,0,0,0-.55-1.5c1.8-.2,3.7-.89,3.7-4A3.13,3.13,0,0,0,14.33,7a2.91,2.91,0,0,0-.08-2.14s-.68-.22-2.23.83A7.68,7.68,0,0,0,8,5.69c-1.55-1-2.23-.83-2.23-.83A2.91,2.91,0,0,0,5.67,7a3.13,3.13,0,0,0-.83,2.17c0,3.1,1.89,3.8,3.69,4A1.73,1.73,0,0,0,8,14.26a1.72,1.72,0,0,1-2.36-.67,1.7,1.7,0,0,0-1.24-.83s-.79,0-.06.49a2.14,2.14,0,0,1,.9,1.18S5.73,16,8,15.52c0,.4,0,1.81,0,2.8a8.56,8.56,0,1,1,4,0Z" fill="#231f20" fill-rule="evenodd"/></svg>